<svg width="30" height="30" viewBox="0 0 30 30" fill="none" xmlns="http://www.w3.org/2000/svg">
<path d="M30 15C30 23.2843 23.2843 30 15 30C6.71573 30 0 23.2843 0 15C0 6.71573 6.71573 0 15 0C23.2843 0 30 6.71573 30 15Z" fill="#FA6423"/>
<path fill-rule="evenodd" clip-rule="evenodd" d="M16 11.8025V14.9275H14V11.8025H16ZM15 16.115C15.5523 16.115 16 16.5627 16 17.115V17.4275C16 17.9798 15.5523 18.4275 15 18.4275C14.4477 18.4275 14 17.9798 14 17.4275V17.115C14 16.5627 14.4477 16.115 15 16.115Z" fill="white"/>
<path fill-rule="evenodd" clip-rule="evenodd" d="M15.5866 8.31129C15.327 7.79964 14.6749 7.79905 14.4145 8.31155L9.35153 18.2678C9.34828 18.2751 9.34485 18.2822 9.34124 18.2893C9.05672 18.8484 9.46469 19.4275 9.92688 19.4275H20.0725C20.5351 19.4275 20.9432 18.8482 20.6596 18.2885L15.5866 8.31129ZM8.43742 17.861C8.44114 17.8525 8.44511 17.8442 8.44932 17.8359L13.523 7.8585C14.1538 6.61747 15.8477 6.61669 16.4782 7.8584L21.5513 17.8359C22.119 18.9562 21.3949 20.4275 20.0725 20.4275H9.92688C8.6152 20.4275 7.89043 18.9786 8.43742 17.861Z" fill="white"/>
</svg>
