<svg width="30" height="30" viewBox="0 0 30 30" fill="none" xmlns="http://www.w3.org/2000/svg">
<path d="M30 15C30 23.2843 23.2843 30 15 30C6.71573 30 0 23.2843 0 15C0 6.71573 6.71573 0 15 0C23.2843 0 30 6.71573 30 15Z" fill="#CD1E5A"/>
<path fill-rule="evenodd" clip-rule="evenodd" d="M9.86331 10.4642C10.0321 10.2956 10.2608 10.201 10.4993 10.201C10.7378 10.201 10.9666 10.2956 11.1353 10.4642L14.9993 14.3282L18.8633 10.4642C18.9457 10.3758 19.0451 10.3048 19.1555 10.2556C19.2659 10.2065 19.385 10.18 19.5059 10.1779C19.6267 10.1757 19.7468 10.198 19.8588 10.2432C19.9709 10.2885 20.0727 10.3559 20.1582 10.4413C20.2436 10.5268 20.311 10.6286 20.3563 10.7407C20.4015 10.8527 20.4237 10.9728 20.4216 11.0936C20.4195 11.2145 20.393 11.3336 20.3438 11.444C20.2947 11.5544 20.2237 11.6538 20.1353 11.7362L16.2713 15.6002L20.1353 19.4642C20.2237 19.5466 20.2947 19.6459 20.3438 19.7563C20.393 19.8667 20.4195 19.9859 20.4216 20.1068C20.4237 20.2276 20.4015 20.3476 20.3563 20.4597C20.311 20.5718 20.2436 20.6736 20.1582 20.759C20.0727 20.8445 19.9709 20.9119 19.8588 20.9571C19.7468 21.0024 19.6267 21.0246 19.5059 21.0225C19.385 21.0204 19.2659 20.9939 19.1555 20.9447C19.0451 20.8955 18.9457 20.8246 18.8633 20.7362L14.9993 16.8722L11.1353 20.7362C10.9647 20.8952 10.739 20.9817 10.5059 20.9776C10.2727 20.9735 10.0503 20.879 9.88536 20.7141C9.72046 20.5492 9.62601 20.3268 9.6219 20.0936C9.61778 19.8605 9.70433 19.6348 9.86331 19.4642L13.7273 15.6002L9.86331 11.7362C9.69477 11.5674 9.6001 11.3387 9.6001 11.1002C9.6001 10.8617 9.69477 10.6329 9.86331 10.4642Z" fill="white"/>
</svg>
