<svg width="30" height="30" viewBox="0 0 30 30" fill="none" xmlns="http://www.w3.org/2000/svg">
<path d="M30 15C30 23.2843 23.2843 30 15 30C6.71573 30 0 23.2843 0 15C0 6.71573 6.71573 0 15 0C23.2843 0 30 6.71573 30 15Z" fill="#98CC33"/>
<path fill-rule="evenodd" clip-rule="evenodd" d="M21.5306 9.96288C21.95 10.3223 21.9986 10.9536 21.6392 11.3729L14.3058 19.9294C14.1159 20.1511 13.8385 20.2787 13.5465 20.2787C13.2546 20.2787 12.9772 20.1511 12.7873 19.9294L9.12059 15.6512C8.76119 15.2318 8.80979 14.6005 9.22913 14.2411C9.64848 13.8817 10.2798 13.9303 10.6392 14.3497L13.5465 17.742L20.1206 10.0714C20.48 9.65207 21.1113 9.60348 21.5306 9.96288Z" fill="white"/>
</svg>
